# xmcd
#
# Track frame offsets:
#	150
#	16450
#	34690
#	51357
#	76617
#	95272
#	112135
#	133445
#	152145
#	170385
#	192540
#	207020
#	226225
#	244507
#	260455
#
# Disc length: 3714 seconds
#
# Revision: 2
# Processed by: cddbd v1.5.2PL0 Copyright (c) Steve Scherf et al.
# Submitted via: EZCDAudioConverter 8.0.2.1
#
DISCID=c50e800f
DTITLE=Various Artist - Dạ Vũ Tuổi Học Trò
DYEAR=1997
DGENRE=Pop
TTITLE0=Ý Lan - Cô bé dỗi hờn
TTITLE1=Elvis Phương - Mong đợi ngậm ngùi
TTITLE2=Như Quỳnh - Anh cứ hẹn
TTITLE3=Kiều Nga - Chỉ là giấc mơ
TTITLE4=Sỹ Đan - Nụ hôn tình nồng
TTITLE5=Ngọc Lan - Môi tím
TTITLE6=Nguyễn Hưng - Mặt trời bé con
TTITLE7=Giáng Ngọc - Dưới ánh nắng hồng
TTITLE8=Philip Huy - Cô bé răng khểnh
TTITLE9=Khánh Hà - Bảy ngày đợi mong
TTITLE10=Kiều Nga - Nếu yêu em
TTITLE11=Ngọc Huệ - Vết son trên áo
TTITLE12=Thúy Vi - Bên nhau ngày vui
TTITLE13=Ngọc lan - Trưng Vương khung cửa mùa thu
TTITLE14=Elvis Phương, Kiều Nga - Tro choi
EXTD=
EXTT0=
EXTT1=
EXTT2=
EXTT3=
EXTT4=
EXTT5=
EXTT6=
EXTT7=
EXTT8=
EXTT9=
EXTT10=
EXTT11=
EXTT12=
EXTT13=
EXTT14=
PLAYORDER=
